# xmcd
#
# Track frame offsets: 
#        150
#        18144
#        36331
#        49328
#        62583
#        77526
#        98661
#        116582
#        132292
#        152137
#        169370
#        189617
#        206842
#        221835
#        246773
#        264466
#        284859
#
# Disc length: 4161 seconds
#
# Revision: 0
# Processed by: cddbd v1.5.2PL0 Copyright (c) Steve Scherf et al.
# Submitted via: ExactAudioCopy v1.5
#
DISCID=fe103f11
DTITLE=Damion Davis - Querfeldein
DYEAR=2013
DGENRE=Rap
TTITLE0=Galerie
TTITLE1=Drehmoment
TTITLE2=Glücksprinzip
TTITLE3=Alter
TTITLE4=Man über Board
TTITLE5=An mir vorbei
TTITLE6=S.O.T.P.
TTITLE7=Erschossen
TTITLE8=Ohne meinen Sohn
TTITLE9=Kopfhörer
TTITLE10=Hellwach
TTITLE11=Das Portrait
TTITLE12=Stein auf dem Weg
TTITLE13=Immer unterwegs
TTITLE14=Gentrifiziert
TTITLE15=An der Line
TTITLE16=Freies Feld
EXTD=
EXTT0=
EXTT1=
EXTT2=
EXTT3=
EXTT4=
EXTT5=
EXTT6=
EXTT7=
EXTT8=
EXTT9=
EXTT10=
EXTT11=
EXTT12=
EXTT13=
EXTT14=
EXTT15=
EXTT16=
PLAYORDER=
